<?xml version="1.0" encoding="UTF-8" standalone="no"?>
<!DOCTYPE svg PUBLIC "-//W3C//DTD SVG 1.1//EN"
 "http://www.w3.org/Graphics/SVG/1.1/DTD/svg11.dtd">
<!-- Generated by graphviz version 2.40.1 (20161225.0304)
 -->
<!-- Title: %3 Pages: 1 -->
<svg width="184pt" height="193pt"
 viewBox="0.00 0.00 183.50 192.75" xmlns="http://www.w3.org/2000/svg" xmlns:xlink="http://www.w3.org/1999/xlink">
<g id="graph0" class="graph" transform="scale(1 1) rotate(0) translate(4 188.7523)">
<title>%3</title>
<polygon fill="#ffffff" stroke="transparent" points="-4,4 -4,-188.7523 179.5,-188.7523 179.5,4 -4,4"/>
<!-- x -->
<g id="node1" class="node">
<title>x</title>
<polygon fill="#d3d3d3" stroke="#000000" points="21,-184.7523 0,-184.7523 0,-166.7523 21,-166.7523 21,-184.7523"/>
<text text-anchor="middle" x="10.5" y="-173.5523" font-family="Times,serif" font-size="9.00" fill="#000000">x</text>
</g>
<!-- dx -->
<g id="node2" class="node">
<title>dx</title>
<polygon fill="#d3d3d3" stroke="#000000" points="65.5,-184.7523 39.5,-184.7523 39.5,-166.7523 65.5,-166.7523 65.5,-184.7523"/>
<text text-anchor="middle" x="52.5" y="-173.5523" font-family="Times,serif" font-size="9.00" fill="#000000">dx</text>
</g>
<!-- theta -->
<g id="node3" class="node">
<title>theta</title>
<polygon fill="#d3d3d3" stroke="#000000" points="117,-184.7523 84,-184.7523 84,-166.7523 117,-166.7523 117,-184.7523"/>
<text text-anchor="middle" x="100.5" y="-173.5523" font-family="Times,serif" font-size="9.00" fill="#000000">theta</text>
</g>
<!-- control -->
<g id="node5" class="node">
<title>control</title>
<ellipse fill="#add8e6" stroke="#000000" cx="100.5" cy="-101.7609" rx="28.9828" ry="28.9828"/>
<text text-anchor="middle" x="100.5" y="-99.5609" font-family="Times,serif" font-size="9.00" fill="#000000">control</text>
</g>
<!-- theta&#45;&gt;control -->
<g id="edge3" class="edge">
<title>theta&#45;&gt;control</title>
<path fill="none" stroke="#00ff00" stroke-width=".3343" d="M100.5,-166.6795C100.5,-160.1615 100.5,-150.8789 100.5,-141.3651"/>
<polygon fill="#00ff00" stroke="#00ff00" stroke-width=".3343" points="104.0001,-141.0707 100.5,-131.0707 97.0001,-141.0707 104.0001,-141.0707"/>
</g>
<!-- dtheta -->
<g id="node4" class="node">
<title>dtheta</title>
<polygon fill="#d3d3d3" stroke="#000000" points="175.5,-184.7523 137.5,-184.7523 137.5,-166.7523 175.5,-166.7523 175.5,-184.7523"/>
<text text-anchor="middle" x="156.5" y="-173.5523" font-family="Times,serif" font-size="9.00" fill="#000000">dtheta</text>
</g>
<!-- dtheta&#45;&gt;control -->
<g id="edge2" class="edge">
<title>dtheta&#45;&gt;control</title>
<path fill="none" stroke="#00ff00" stroke-width=".3758" d="M149.6333,-166.6795C143.2736,-158.2766 133.4365,-145.2791 124.23,-133.1148"/>
<polygon fill="#00ff00" stroke="#00ff00" stroke-width=".3758" points="126.8333,-130.7548 118.0076,-124.8932 121.2517,-134.9792 126.8333,-130.7548"/>
</g>
<!-- 52 -->
<g id="node6" class="node">
<title>52</title>
<ellipse fill="#ffffff" stroke="#000000" cx="128.5" cy="-18.3848" rx="18.2703" ry="18.2703"/>
<text text-anchor="middle" x="128.5" y="-16.1848" font-family="Times,serif" font-size="9.00" fill="#000000">52</text>
</g>
<!-- dtheta&#45;&gt;52 -->
<g id="edge1" class="edge">
<title>dtheta&#45;&gt;52</title>
<path fill="none" stroke="#00ff00" stroke-width=".6916" d="M154.9377,-166.6554C151.8475,-148.698 144.7151,-107.4277 138.5,-72.7696 136.9749,-64.2651 135.2862,-55.0186 133.7374,-46.6029"/>
<polygon fill="#00ff00" stroke="#00ff00" stroke-width=".6916" points="137.1307,-45.7041 131.8733,-36.5058 130.247,-46.9751 137.1307,-45.7041"/>
</g>
<!-- control&#45;&gt;52 -->
<g id="edge4" class="edge">
<title>control&#45;&gt;52</title>
<path fill="none" stroke="#ff0000" stroke-width=".2243" d="M109.8236,-73.9979C112.8751,-64.9114 116.2614,-54.8279 119.3034,-45.7695"/>
<polygon fill="#ff0000" stroke="#ff0000" stroke-width=".2243" points="122.6898,-46.6798 122.5555,-36.0858 116.054,-44.4513 122.6898,-46.6798"/>
</g>
</g>
</svg>
